<svg xmlns="http://www.w3.org/2000/svg" xmlns:xlink="http://www.w3.org/1999/xlink" viewBox="0 0 220.58 110.24"><defs><style>.cls-1{fill:none;}.cls-2{clip-path:url(#clip-path);}.cls-3{fill:url(#Degradado_sin_nombre_3);}.cls-4{fill:url(#Degradado_sin_nombre_96);}.cls-11,.cls-27,.cls-5{opacity:0.8;}.cls-5{fill:url(#Degradado_sin_nombre_92);}.cls-6{fill:url(#Degradado_sin_nombre_14);}.cls-7{fill:url(#Degradado_sin_nombre_14-2);}.cls-8{fill:url(#Degradado_sin_nombre_13);}.cls-9{fill:url(#Degradado_sin_nombre_14-3);}.cls-10{fill:url(#Degradado_sin_nombre_2);}.cls-11{fill:url(#Degradado_sin_nombre_14-4);}.cls-12{fill:url(#Degradado_sin_nombre_52);}.cls-13{fill:url(#Degradado_sin_nombre_2-2);}.cls-14{fill:#eec700;}.cls-15{fill:url(#Degradado_sin_nombre_52-2);}.cls-16{fill:url(#Degradado_sin_nombre_52-3);}.cls-17{fill:#43719f;}.cls-18{fill:url(#Degradado_sin_nombre_96-2);}.cls-19{fill:url(#Degradado_sin_nombre_96-3);}.cls-20{fill:url(#Degradado_sin_nombre_96-4);}.cls-21{fill:url(#Degradado_sin_nombre_96-5);}.cls-22{fill:url(#Degradado_sin_nombre_14-5);}.cls-23{fill:url(#Degradado_sin_nombre_14-6);}.cls-24{fill:url(#Degradado_sin_nombre_13-2);}.cls-25{fill:url(#Degradado_sin_nombre_14-7);}.cls-26{fill:url(#Degradado_sin_nombre_2-3);}.cls-27{fill:url(#Degradado_sin_nombre_14-8);}.cls-28{fill:url(#Degradado_sin_nombre_52-4);}.cls-29{fill:url(#Degradado_sin_nombre_2-4);}.cls-30{fill:url(#Degradado_sin_nombre_52-5);}.cls-31{fill:url(#Degradado_sin_nombre_52-6);}</style><clipPath id="clip-path"><rect class="cls-1" x="57.06" y="85.88" width="163.52" height="15.39"/></clipPath><linearGradient id="Degradado_sin_nombre_3" x1="57.06" y1="93.57" x2="220.58" y2="93.57" gradientUnits="userSpaceOnUse"><stop offset="0" stop-color="#fff"/><stop offset="0.1" stop-color="#c1ccdf"/><stop offset="0.19" stop-color="#708bb2"/><stop offset="0.26" stop-color="#5179a3"/><stop offset="1" stop-color="#43739f"/></linearGradient><linearGradient id="Degradado_sin_nombre_96" x1="104.54" y1="70.98" x2="130.85" y2="113.61" gradientUnits="userSpaceOnUse"><stop offset="0" stop-color="#4f8ec9"/><stop offset="1" stop-color="#000012"/></linearGradient><linearGradient id="Degradado_sin_nombre_92" x1="63.66" y1="103.9" x2="139.14" y2="103.9" gradientUnits="userSpaceOnUse"><stop offset="0" stop-color="#4f8ec9"/><stop offset="1" stop-color="#00263e"/></linearGradient><linearGradient id="Degradado_sin_nombre_14" x1="79.87" y1="86.27" x2="145.13" y2="86.65" gradientUnits="userSpaceOnUse"><stop offset="0" stop-color="#508ec9"/><stop offset="1" stop-color="#002035"/></linearGradient><linearGradient id="Degradado_sin_nombre_14-2" x1="100.51" y1="78.98" x2="128.73" y2="124.47" xlink:href="#Degradado_sin_nombre_14"/><linearGradient id="Degradado_sin_nombre_13" x1="133.73" y1="56.43" x2="81.65" y2="2.13" gradientUnits="userSpaceOnUse"><stop offset="0" stop-color="#4f8ec9"/><stop offset="1" stop-color="#002035"/></linearGradient><linearGradient id="Degradado_sin_nombre_14-3" x1="143.07" y1="45.11" x2="78.32" y2="-10.77" xlink:href="#Degradado_sin_nombre_14"/><linearGradient id="Degradado_sin_nombre_2" x1="127.79" y1="28.55" x2="51.97" y2="82.4" gradientUnits="userSpaceOnUse"><stop offset="0" stop-color="#eec700"/><stop offset="1" stop-color="#e2a900"/></linearGradient><linearGradient id="Degradado_sin_nombre_14-4" x1="69.79" y1="55.52" x2="146.67" y2="55.52" xlink:href="#Degradado_sin_nombre_14"/><radialGradient id="Degradado_sin_nombre_52" cx="70.05" cy="26.56" r="22.45" gradientTransform="translate(22.47 -1.57) scale(1.01 1)" gradientUnits="userSpaceOnUse"><stop offset="0" stop-color="#fff"/><stop offset="0.12" stop-color="#fff" stop-opacity="0.98"/><stop offset="0.24" stop-color="#fff" stop-opacity="0.94"/><stop offset="0.36" stop-color="#fff" stop-opacity="0.85"/><stop offset="0.48" stop-color="#fff" stop-opacity="0.74"/><stop offset="0.6" stop-color="#fff" stop-opacity="0.59"/><stop offset="0.73" stop-color="#fff" stop-opacity="0.42"/><stop offset="0.85" stop-color="#fff" stop-opacity="0.21"/><stop offset="0.96" stop-color="#fff" stop-opacity="0"/></radialGradient><linearGradient id="Degradado_sin_nombre_2-2" x1="50.3" y1="62.31" x2="160.33" y2="62.31" xlink:href="#Degradado_sin_nombre_2"/><radialGradient id="Degradado_sin_nombre_52-2" cx="81.8" cy="63.53" r="47.35" xlink:href="#Degradado_sin_nombre_52"/><radialGradient id="Degradado_sin_nombre_52-3" cx="43.31" cy="95.45" r="0.06" xlink:href="#Degradado_sin_nombre_52"/><linearGradient id="Degradado_sin_nombre_96-2" x1="33.42" y1="74.59" x2="8.58" y2="54.65" xlink:href="#Degradado_sin_nombre_96"/><linearGradient id="Degradado_sin_nombre_96-3" x1="125.52" y1="148.51" x2="9.32" y2="55.25" xlink:href="#Degradado_sin_nombre_96"/><linearGradient id="Degradado_sin_nombre_96-4" x1="33.62" y1="74.35" x2="8.77" y2="54.41" xlink:href="#Degradado_sin_nombre_96"/><linearGradient id="Degradado_sin_nombre_96-5" x1="125.71" y1="148.26" x2="9.52" y2="55" xlink:href="#Degradado_sin_nombre_96"/><linearGradient id="Degradado_sin_nombre_14-5" x1="13.37" y1="95.34" x2="42.58" y2="95.51" xlink:href="#Degradado_sin_nombre_14"/><linearGradient id="Degradado_sin_nombre_14-6" x1="22.61" y1="92.08" x2="35.24" y2="112.44" xlink:href="#Degradado_sin_nombre_14"/><linearGradient id="Degradado_sin_nombre_13-2" x1="37.48" y1="81.98" x2="14.16" y2="57.67" xlink:href="#Degradado_sin_nombre_13"/><linearGradient id="Degradado_sin_nombre_14-7" x1="41.66" y1="76.92" x2="12.67" y2="51.9" xlink:href="#Degradado_sin_nombre_14"/><linearGradient id="Degradado_sin_nombre_2-3" x1="34.82" y1="69.5" x2="0.88" y2="93.61" xlink:href="#Degradado_sin_nombre_2"/><linearGradient id="Degradado_sin_nombre_14-8" x1="9.04" y1="81.35" x2="43.45" y2="81.35" xlink:href="#Degradado_sin_nombre_14"/><radialGradient id="Degradado_sin_nombre_52-4" cx="-2.94" cy="69.07" r="10.05" xlink:href="#Degradado_sin_nombre_52"/><linearGradient id="Degradado_sin_nombre_2-4" x1="0.13" y1="84.62" x2="49.38" y2="84.62" xlink:href="#Degradado_sin_nombre_2"/><radialGradient id="Degradado_sin_nombre_52-5" cx="2.14" cy="85.85" r="21.19" xlink:href="#Degradado_sin_nombre_52"/><radialGradient id="Degradado_sin_nombre_52-6" cx="-15.09" cy="100.14" r="0.03" xlink:href="#Degradado_sin_nombre_52"/></defs><title>cmsnews-logo</title><g id="Capa_2" data-name="Capa 2"><g id="banner"><g class="cls-2"><rect class="cls-3" x="57.06" y="85.88" width="163.52" height="15.39"/><path class="cls-4" d="M126,104.1q-.54,0-1.12,0c-.33,0-.67-.06-1-.1.35,0,.69.08,1,.1S125.65,104.11,126,104.1Z"/><path class="cls-5" d="M122.83,103.83h0c.35.06.7.12,1,.16Z"/><path class="cls-6" d="M143.23,97.77a10.81,10.81,0,0,1-4.05.44,23.36,23.36,0,0,1-5.1-1,44.64,44.64,0,0,1-6.72-2.65,80.59,80.59,0,0,1-11.82-7.14c-4.88-3.5-11.93-10.88-16.11-15-9.49-7.89-19-3.13-20.66,2.79,3.88-1.25,9-.64,14,3.57C97,83,104,90.34,108.91,93.83c6.94,5,13.33,8.26,18.53,9.78a26.89,26.89,0,0,0,3,.7,19.31,19.31,0,0,0,2.08.25,10.81,10.81,0,0,0,4.05-.44,6.4,6.4,0,0,0,1.4-.67l.36-.26.46-.35a32.63,32.63,0,0,0,3.43-3,32.28,32.28,0,0,0,2.76-3A6.16,6.16,0,0,1,143.23,97.77Z"/><path class="cls-7" d="M136.59,104.13a8.86,8.86,0,0,1-1.87.4q-.51.06-1.05.07t-1.13,0c-.33,0-.68-.05-1-.1s-.7-.1-1.05-.16a26.9,26.9,0,0,1-3-.7c-5.2-1.52-11.59-4.81-18.53-9.78C104,90.34,97,83,92.79,78.8c-5.07-4.21-10.14-4.82-14-3.57a6.85,6.85,0,0,0-.24,1.33c-.26,3.34,1.41,5.34,3,7.26C85.86,88.09,93,95.59,98.06,99.19c7.14,5.12,13.72,8.5,19.07,10.06a23.71,23.71,0,0,0,5.24,1,7.55,7.55,0,0,0,.83,0h0a11,11,0,0,0,2.63-.29c-.23,0-.29-.08-.32-.12,0-.37,0-.46,0-.11v.11a.42.42,0,0,0,.33.12h.08a2.68,2.68,0,0,0,.5-.11l.12,0s.57-.21,1.42-.58l.71-.32,1.71-.82a56.44,56.44,0,0,0,6-3.46l1.63-1.14A6.4,6.4,0,0,1,136.59,104.13Z"/><path class="cls-8" d="M129.83,34.07a219.67,219.67,0,0,0-17.74-18.3c-6.55-5.6-12.72-9.42-17.87-11.36a23.13,23.13,0,0,0-5.12-1.34,7.54,7.54,0,0,0-.82,0h0a12.52,12.52,0,0,0-1.35,0h-.22l-.39,0-.3,0-.4.05h-.07L83.67,4a53.46,53.46,0,0,0-5.37,3.28c-.86.62-.66.5-3.87,3l-1,1-.48.45a6.3,6.3,0,0,1,2.25-1.06,10.93,10.93,0,0,1,4.09-.16,22.8,22.8,0,0,1,5,1.31,40.69,40.69,0,0,1,5.25,2.46,73.69,73.69,0,0,1,12.13,8.59A215.59,215.59,0,0,1,119,40.84c3.53,3.5,7.29,4.87,10.67,4.87a8.22,8.22,0,0,0,2.35-4.2C132.66,38.21,131.22,36.1,129.83,34.07Z"/><path class="cls-9" d="M137.81,31.08a219.66,219.66,0,0,0-17.74-18.3c-6.55-5.6-12.72-9.42-17.87-11.36A23.13,23.13,0,0,0,97.08.08a7.55,7.55,0,0,0-.83,0h0a12.09,12.09,0,0,0-1.74,0c-.2,0-1.22.12-1.37.15L93,.21l-.12,0-.14,0-.27.08-.12,0h0l-1.2.4C87.84,2.07,87.31,2.26,86,2.9c0,0-.49.23-.47.23h.05L86,3.07,86.71,3h.22a12.52,12.52,0,0,1,1.35,0h0a7.54,7.54,0,0,1,.82,0,23.13,23.13,0,0,1,5.12,1.34c5.15,1.94,11.33,5.76,17.87,11.36a219.67,219.67,0,0,1,17.74,18.3c1.39,2,2.83,4.13,2.19,7.44a8.22,8.22,0,0,1-2.35,4.2h-.36s.67,0,1.35.06a7.83,7.83,0,0,0,4.59-1.38,10.37,10.37,0,0,0,2.14-1.59A8.23,8.23,0,0,0,140,38.53C140.63,35.22,139.2,33.11,137.81,31.08Z"/><path class="cls-10" d="M113.69,24.83c-4.65-1.25-7.82,0-10.88,1.26-.65.33-10.86,5-11.5,5.37A147.29,147.29,0,0,0,71.37,43.72C62.59,50.19,56.39,56.52,53,62a21.77,21.77,0,0,0-2.53,5.54,6.75,6.75,0,0,0-.16.92h0v0a21.85,21.85,0,0,0-.18,3h0s.22,1.44.22,1.44v0l.43,1.41a54.7,54.7,0,0,0,3.75,9,56,56,0,0,0,7.33,10.78l.56.64,3,3.06a6.67,6.67,0,0,1-2-3.51,9.84,9.84,0,0,1,.27-4.63,21.46,21.46,0,0,1,2.46-5.39C69.43,79,75.46,72.79,84,66.51A142.14,142.14,0,0,1,103.36,54.6c.52-.33,1-.66,1.47-1,2.77-1.64,6-3.63,8.27-4.93,1.52-.88,7.74-4.86,8.07-5.35C126.29,35.39,120.83,26.75,113.69,24.83Z"/><path class="cls-11" d="M89.19,14.77A13.92,13.92,0,0,1,87.67,7.3a10.79,10.79,0,0,1,1.18-3.78A5.68,5.68,0,0,1,92.18.81l-.12,0h0l-1.15.38a41.54,41.54,0,0,0-5.62,2.34l-1.89.91A53.46,53.46,0,0,0,78,7.78c-.86.62-.66.5-3.87,3l-1,1-.48.45-.9.85a7.57,7.57,0,0,0-1.9,4.81c-1.56,18.65,44.46,52.29,57.22,77.2a29.75,29.75,0,0,1,3,8.3,7.37,7.37,0,0,1,.11,1.4,5.78,5.78,0,0,1-.44,2.17,5.43,5.43,0,0,1-.37.72l-.64.73-.92.88-1.54,1s.57-.21,1.42-.58l.71-.32,1.71-.82a56.44,56.44,0,0,0,6-3.46l1.63-1.14c-.14.09-.29.17-.45.25.15-.08.3-.16.45-.25s.82-.6.82-.6a32.63,32.63,0,0,0,3.43-3,32.28,32.28,0,0,0,2.76-3l.18-.24a7.67,7.67,0,0,0,1.25-2.51,16.3,16.3,0,0,0,.31-1.63c.06-.43.12-.88.18-1.35C148.76,74.44,98.83,36.29,89.19,14.77Z"/><path class="cls-12" d="M89.19,14.77A13.92,13.92,0,0,1,87.67,7.3a10.79,10.79,0,0,1,1.18-3.78A5.68,5.68,0,0,1,92.18.81l-.12,0h0l-1.15.38a41.54,41.54,0,0,0-5.62,2.34l-1.89.91A53.46,53.46,0,0,0,78,7.78c-.86.62-.66.5-3.87,3l-1,1-.48.45-.9.85a7.57,7.57,0,0,0-1.9,4.81c-1.56,18.65,44.46,52.29,57.22,77.2a29.75,29.75,0,0,1,3,8.3,7.37,7.37,0,0,1,.11,1.4,5.78,5.78,0,0,1-.44,2.17,5.43,5.43,0,0,1-.37.72l-.64.73-.92.88-1.54,1s.57-.21,1.42-.58l.71-.32,1.71-.82a56.44,56.44,0,0,0,6-3.46l1.63-1.14c-.14.09-.29.17-.45.25.15-.08.3-.16.45-.25s.82-.6.82-.6a32.63,32.63,0,0,0,3.43-3,32.28,32.28,0,0,0,2.76-3l.18-.24a7.67,7.67,0,0,0,1.25-2.51,16.3,16.3,0,0,0,.31-1.63c.06-.43.12-.88.18-1.35C148.76,74.44,98.83,36.29,89.19,14.77Z"/><path class="cls-13" d="M160.24,48.91l-.56-3c-.75-3.43-.83-3.64-2.82-9.19-.63-1.51-1.18-2.9-1.88-4.38a99.93,99.93,0,0,0-5.85-8.84,6.78,6.78,0,0,1,.31.73c.65,1.15,1.52,2.56,1.83,3.3,2,5.55,1.63,4.45,2.38,7.87l.56,3c.85,5.49-4.1,13.56-14.18,22.26-2,1.69-4.12,3.42-6.47,5.14C111.6,82,81.33,92.93,66,90.23a12.51,12.51,0,0,1-6.63-2.91s-5.72-5.42-8.15-11.69a58.7,58.7,0,0,0,3.32,7.7,56,56,0,0,0,7.33,10.78l.44.51c-.84-1-3-3.7.12.13l3,3.06A12.51,12.51,0,0,0,72,100.73c15.36,2.7,45.63-8.23,67.6-24.42,2.35-1.73,4.51-3.45,6.47-5.14C156.13,62.46,161.09,54.4,160.24,48.91Z"/><path class="cls-14" d="M154.22,38.4l-.56-3c-.75-3.43-.4-2.33-2.38-7.87-.31-.74-1.18-2.16-1.83-3.3-.23-.41-.44-.79-.58-1.09,1.2,5.2-2.56,12.56-11.57,20.95L136,45.27l-1.15,1q-3,2.61-6.65,5.29C105.57,68.23,74.43,79.48,58.63,76.7a22.52,22.52,0,0,1-8.2-3.51v0l.06.23.27.89.42,1.29c2.43,6.27,8.15,11.69,8.15,11.69A12.51,12.51,0,0,0,66,90.23c15.36,2.7,45.63-8.23,67.6-24.42,2.35-1.73,4.51-3.45,6.47-5.14C150.12,52,155.07,43.89,154.22,38.4Z"/><path class="cls-15" d="M159.95,48.93l-.56-3c-.75-3.43-.83-3.64-2.82-9.19-.63-1.51-1.18-2.9-1.88-4.38a99.93,99.93,0,0,0-5.85-8.84,6.78,6.78,0,0,1,.31.73c-.23-.41-.44-.79-.58-1.09,1.2,5.2-2.56,12.56-11.57,20.95l-1.31,1.2-1.15,1q-3,2.61-6.65,5.29C105.28,68.26,74.14,79.51,58.34,76.72a22.52,22.52,0,0,1-8.2-3.51v0c0-.14-.1-.27-.14-.41l0,.15v0l.14.47a17.45,17.45,0,0,0,.69,2.17,58.7,58.7,0,0,0,3.32,7.7,56,56,0,0,0,7.33,10.78l.44.51c-.84-1-3-3.7.12.13l3,3.06a12.51,12.51,0,0,0,6.63,2.91c15.36,2.7,45.63-8.23,67.6-24.42,2.35-1.73,4.51-3.45,6.47-5.14C155.85,62.49,160.8,54.42,159.95,48.93Z"/><path class="cls-16" d="M66.24,94.24l-.12-.13Z"/></g><path class="cls-17" d="M72.38,78.5q0,.42,0,.72a3.41,3.41,0,0,1-.08.51,1.42,1.42,0,0,1-.14.36,1.78,1.78,0,0,1-.27.35,3.48,3.48,0,0,1-.73.5,8.68,8.68,0,0,1-1.32.58A11.67,11.67,0,0,1,68,82a12,12,0,0,1-2.17.19,11.61,11.61,0,0,1-4.12-.69,8.14,8.14,0,0,1-3.12-2.07,9.19,9.19,0,0,1-2-3.43A15.15,15.15,0,0,1,56,71.18a14.93,14.93,0,0,1,.75-4.94,10.25,10.25,0,0,1,2.11-3.63,8.84,8.84,0,0,1,3.25-2.23,11.14,11.14,0,0,1,4.18-.76,10.22,10.22,0,0,1,1.78.15,11.08,11.08,0,0,1,1.59.4,8.05,8.05,0,0,1,1.31.57,4,4,0,0,1,.81.55,1.91,1.91,0,0,1,.32.38,1.4,1.4,0,0,1,.14.39,4.25,4.25,0,0,1,.08.56q0,.32,0,.79t0,.86a2.2,2.2,0,0,1-.12.57.79.79,0,0,1-.21.32.41.41,0,0,1-.27.1A1.2,1.2,0,0,1,71,65a10.68,10.68,0,0,0-1-.66,8.4,8.4,0,0,0-1.49-.66,6.44,6.44,0,0,0-2.07-.3,5.1,5.1,0,0,0-2.36.53,5,5,0,0,0-1.77,1.52,7.07,7.07,0,0,0-1.11,2.39,13.67,13.67,0,0,0,0,6.49,6.39,6.39,0,0,0,1.15,2.32A4.64,4.64,0,0,0,64.19,78a6,6,0,0,0,2.38.45,6.88,6.88,0,0,0,2.08-.28,8.83,8.83,0,0,0,1.5-.62q.63-.34,1-.61a1.29,1.29,0,0,1,.63-.27.5.5,0,0,1,.27.07.51.51,0,0,1,.17.27,2.63,2.63,0,0,1,.1.57Q72.38,77.9,72.38,78.5Z"/><path class="cls-17" d="M93.81,80.16a5.81,5.81,0,0,1,.26,1,.57.57,0,0,1-.14.53,1.13,1.13,0,0,1-.67.22q-.48,0-1.32,0t-1.36,0a3.45,3.45,0,0,1-.75-.1.68.68,0,0,1-.36-.21,1.14,1.14,0,0,1-.17-.35L87.8,76.84H79.47L78.06,81.1a1.35,1.35,0,0,1-.18.4.74.74,0,0,1-.36.25,2.68,2.68,0,0,1-.7.13q-.45,0-1.19,0a11.6,11.6,0,0,1-1.24-.05,1,1,0,0,1-.62-.24.65.65,0,0,1-.12-.55,5.43,5.43,0,0,1,.26-.94l6.85-19.36A1.68,1.68,0,0,1,81,60.3a.85.85,0,0,1,.44-.27,3.51,3.51,0,0,1,.83-.12q.53,0,1.41,0t1.61,0a4.37,4.37,0,0,1,.93.12.9.9,0,0,1,.48.28,1.63,1.63,0,0,1,.25.51Zm-10.19-16h0l-3.14,9.28h6.3Z"/><path class="cls-17" d="M122.78,81.2a.52.52,0,0,1-.09.3.66.66,0,0,1-.34.22,3.41,3.41,0,0,1-.66.13,8.86,8.86,0,0,1-1,.05,8.68,8.68,0,0,1-1-.05,3.21,3.21,0,0,1-.65-.13.71.71,0,0,1-.34-.22.49.49,0,0,1-.1-.3V63.44h0L112,81.19a.82.82,0,0,1-.22.36,1.09,1.09,0,0,1-.42.23,2.88,2.88,0,0,1-.68.11l-1,0a9.93,9.93,0,0,1-1,0,3,3,0,0,1-.68-.13,1.27,1.27,0,0,1-.42-.23.65.65,0,0,1-.21-.32l-6.21-17.75h0V81.2a.52.52,0,0,1-.09.3.67.67,0,0,1-.35.22,3.61,3.61,0,0,1-.66.13,10.58,10.58,0,0,1-2.07,0,3.4,3.4,0,0,1-.66-.13.66.66,0,0,1-.34-.22.52.52,0,0,1-.09-.3V61.75a1.76,1.76,0,0,1,.46-1.32A1.69,1.69,0,0,1,98.61,60h3a6.3,6.3,0,0,1,1.36.13,2.65,2.65,0,0,1,1,.42,2.41,2.41,0,0,1,.69.78,5.52,5.52,0,0,1,.48,1.19l4.8,13h.07l5-13a6.79,6.79,0,0,1,.49-1.2,2.8,2.8,0,0,1,.62-.79,2.05,2.05,0,0,1,.83-.43A4.4,4.4,0,0,1,118,60h3a2.41,2.41,0,0,1,.8.12,1.36,1.36,0,0,1,.55.35,1.51,1.51,0,0,1,.33.56,2.34,2.34,0,0,1,.11.75Z"/><path class="cls-17" d="M140.78,80.07a6.53,6.53,0,0,1,0,.82,2.09,2.09,0,0,1-.13.53.68.68,0,0,1-.21.3.47.47,0,0,1-.28.09H129a1.42,1.42,0,0,1-1-.33,1.34,1.34,0,0,1-.39-1.07v-19a1.34,1.34,0,0,1,.39-1.07,1.42,1.42,0,0,1,1-.33H140a.47.47,0,0,1,.27.08.65.65,0,0,1,.21.3,2.22,2.22,0,0,1,.13.54,6.67,6.67,0,0,1,0,.83,6.34,6.34,0,0,1,0,.8,2.08,2.08,0,0,1-.13.53.72.72,0,0,1-.21.3.44.44,0,0,1-.27.09h-7.93v5.33h6.71a.47.47,0,0,1,.28.09.69.69,0,0,1,.21.29,2,2,0,0,1,.13.52,7.58,7.58,0,0,1,0,1.61,1.94,1.94,0,0,1-.13.51.62.62,0,0,1-.21.28.5.5,0,0,1-.28.08h-6.71v6.16h8a.47.47,0,0,1,.28.09.68.68,0,0,1,.21.3,2.09,2.09,0,0,1,.13.53A6.54,6.54,0,0,1,140.78,80.07Z"/><path class="cls-17" d="M161.23,81.24a.65.65,0,0,1-.07.31.55.55,0,0,1-.33.21,3.3,3.3,0,0,1-.75.12q-.5,0-1.36,0t-1.15,0a2.6,2.6,0,0,1-.68-.13.73.73,0,0,1-.35-.24,1.3,1.3,0,0,1-.17-.35l-2-4.87q-.36-.83-.7-1.47a4.69,4.69,0,0,0-.76-1.07,2.79,2.79,0,0,0-1-.65,3.41,3.41,0,0,0-1.27-.22h-1.41V81.2a.46.46,0,0,1-.11.3.78.78,0,0,1-.37.22,3.64,3.64,0,0,1-.69.13,11.84,11.84,0,0,1-2.19,0,3.65,3.65,0,0,1-.69-.13.72.72,0,0,1-.36-.22.49.49,0,0,1-.1-.3V61.38a1.34,1.34,0,0,1,.39-1.07,1.42,1.42,0,0,1,1-.33h5.75q.87,0,1.44,0l1,.08a9.47,9.47,0,0,1,2.41.64,5.79,5.79,0,0,1,1.82,1.19,4.94,4.94,0,0,1,1.14,1.74,6.26,6.26,0,0,1,.39,2.3,6.66,6.66,0,0,1-.28,2,5.1,5.1,0,0,1-.83,1.61,5.44,5.44,0,0,1-1.36,1.23,7.39,7.39,0,0,1-1.84.84,5.15,5.15,0,0,1,.93.57,4.9,4.9,0,0,1,.82.82,7.87,7.87,0,0,1,.73,1.1,14.12,14.12,0,0,1,.67,1.39l1.87,4.3q.26.64.34.94A1.79,1.79,0,0,1,161.23,81.24Zm-5.82-14.81a3.2,3.2,0,0,0-.5-1.82,2.71,2.71,0,0,0-1.63-1,6.37,6.37,0,0,0-.78-.13,11.14,11.14,0,0,0-1.21-.05h-2v6.19h2.3a5.59,5.59,0,0,0,1.68-.23,3.37,3.37,0,0,0,1.2-.64,2.62,2.62,0,0,0,.72-1A3.29,3.29,0,0,0,155.41,66.43Z"/><path class="cls-17" d="M177.36,75.27a6.65,6.65,0,0,1-.65,3,6.28,6.28,0,0,1-1.77,2.17,7.74,7.74,0,0,1-2.61,1.31,11.27,11.27,0,0,1-3.19.44A11.57,11.57,0,0,1,167,82a12.34,12.34,0,0,1-1.74-.45A7.65,7.65,0,0,1,164,81a3.62,3.62,0,0,1-.73-.51,1.25,1.25,0,0,1-.32-.63,5.68,5.68,0,0,1-.09-1.19q0-.52,0-.88a2.49,2.49,0,0,1,.11-.57.63.63,0,0,1,.21-.31.5.5,0,0,1,.3-.09,1.44,1.44,0,0,1,.68.28,12,12,0,0,0,1.12.62,10.24,10.24,0,0,0,1.64.62,7.89,7.89,0,0,0,2.2.28,5.17,5.17,0,0,0,1.48-.19,3.32,3.32,0,0,0,1.11-.55,2.33,2.33,0,0,0,.69-.88,2.76,2.76,0,0,0,.24-1.16,2,2,0,0,0-.41-1.27,4.07,4.07,0,0,0-1.07-.94,11.19,11.19,0,0,0-1.5-.78L168,72.08a15.9,15.9,0,0,1-1.73-.92,7,7,0,0,1-1.5-1.23,5.78,5.78,0,0,1-1.07-1.7,6,6,0,0,1-.41-2.34,6.11,6.11,0,0,1,.59-2.76,5.67,5.67,0,0,1,1.6-2A6.83,6.83,0,0,1,167.79,60a10.52,10.52,0,0,1,2.89-.39,10.68,10.68,0,0,1,1.58.12,11,11,0,0,1,1.48.32,8.34,8.34,0,0,1,1.22.46,2.87,2.87,0,0,1,.7.42,1.23,1.23,0,0,1,.23.29,1.35,1.35,0,0,1,.1.31,3.23,3.23,0,0,1,.06.49q0,.3,0,.73t0,.83a3,3,0,0,1-.09.56.66.66,0,0,1-.17.32.43.43,0,0,1-.3.1,1.44,1.44,0,0,1-.6-.24q-.41-.24-1-.51a9.75,9.75,0,0,0-1.39-.51,6.23,6.23,0,0,0-1.73-.23,4.2,4.2,0,0,0-1.29.18,2.67,2.67,0,0,0-.92.49,1.93,1.93,0,0,0-.55.75,2.42,2.42,0,0,0-.18.93,2,2,0,0,0,.4,1.26,3.84,3.84,0,0,0,1.08.94,11.65,11.65,0,0,0,1.54.78l1.75.77a17.38,17.38,0,0,1,1.75.92,7,7,0,0,1,1.53,1.23A5.73,5.73,0,0,1,176.94,73,5.82,5.82,0,0,1,177.36,75.27Z"/><path class="cls-17" d="M198.92,73.68a10.09,10.09,0,0,1-.6,3.59A7,7,0,0,1,196.55,80a7.7,7.7,0,0,1-2.88,1.67,12.44,12.44,0,0,1-3.95.57,12.71,12.71,0,0,1-3.76-.51,7.33,7.33,0,0,1-2.81-1.56,6.8,6.8,0,0,1-1.76-2.61,10,10,0,0,1-.61-3.65V60.59a.49.49,0,0,1,.1-.3.73.73,0,0,1,.37-.22,3.87,3.87,0,0,1,.69-.13,9.69,9.69,0,0,1,1.1-.05,9.51,9.51,0,0,1,1.08.05,3.67,3.67,0,0,1,.69.13.79.79,0,0,1,.37.22.46.46,0,0,1,.11.3V73.48a7,7,0,0,0,.33,2.25,4.13,4.13,0,0,0,.93,1.58,3.87,3.87,0,0,0,1.46.94,5.46,5.46,0,0,0,1.9.31,5.31,5.31,0,0,0,1.9-.32,3.79,3.79,0,0,0,1.42-.94,4.2,4.2,0,0,0,.9-1.52,6.16,6.16,0,0,0,.32-2V60.59a.49.49,0,0,1,.1-.3.73.73,0,0,1,.36-.22,3.68,3.68,0,0,1,.69-.13,9.74,9.74,0,0,1,1.09-.05,9.28,9.28,0,0,1,1.07.05,3.65,3.65,0,0,1,.68.13.73.73,0,0,1,.36.22.49.49,0,0,1,.1.3Z"/><path class="cls-17" d="M220.21,81.24a.65.65,0,0,1-.07.31.55.55,0,0,1-.33.21,3.3,3.3,0,0,1-.75.12q-.5,0-1.36,0t-1.15,0a2.6,2.6,0,0,1-.68-.13.73.73,0,0,1-.35-.24,1.3,1.3,0,0,1-.17-.35l-2-4.87q-.36-.83-.7-1.47a4.69,4.69,0,0,0-.76-1.07,2.79,2.79,0,0,0-1-.65,3.41,3.41,0,0,0-1.27-.22h-1.41V81.2a.46.46,0,0,1-.11.3.78.78,0,0,1-.37.22,3.64,3.64,0,0,1-.69.13,11.84,11.84,0,0,1-2.19,0,3.65,3.65,0,0,1-.69-.13.72.72,0,0,1-.36-.22.49.49,0,0,1-.1-.3V61.38a1.34,1.34,0,0,1,.39-1.07,1.42,1.42,0,0,1,1-.33h5.75q.87,0,1.44,0l1,.08a9.47,9.47,0,0,1,2.41.64,5.79,5.79,0,0,1,1.82,1.19,4.94,4.94,0,0,1,1.14,1.74,6.26,6.26,0,0,1,.39,2.3,6.66,6.66,0,0,1-.28,2,5.1,5.1,0,0,1-.83,1.61,5.44,5.44,0,0,1-1.36,1.23,7.39,7.39,0,0,1-1.84.84,5.15,5.15,0,0,1,.93.57,4.9,4.9,0,0,1,.82.82,7.87,7.87,0,0,1,.73,1.1,14.12,14.12,0,0,1,.67,1.39l1.87,4.3q.26.64.34.94A1.79,1.79,0,0,1,220.21,81.24Zm-5.82-14.81a3.2,3.2,0,0,0-.5-1.82,2.71,2.71,0,0,0-1.63-1,6.37,6.37,0,0,0-.78-.13,11.14,11.14,0,0,0-1.21-.05h-2v6.19h2.3a5.59,5.59,0,0,0,1.68-.23,3.37,3.37,0,0,0,1.2-.64,2.62,2.62,0,0,0,.72-1A3.29,3.29,0,0,0,214.39,66.43Z"/><path class="cls-1" d="M13.2,58l-.31,0h.31Z"/><polygon class="cls-1" points="17.43 56.66 17.43 56.66 17.42 56.66 17.43 56.66"/><path class="cls-1" d="M13.27,58h0Z"/><path class="cls-18" d="M12.72,58l.18,0-.2,0h0Z"/><path class="cls-19" d="M12.72,58l.18,0-.2,0h0Z"/><path class="cls-20" d="M13.2,58h0Z"/><path class="cls-21" d="M13.2,58h0Z"/><path class="cls-22" d="M41.73,100.49a4.84,4.84,0,0,1-1.82.2,10.46,10.46,0,0,1-2.28-.43,20,20,0,0,1-3-1.18,36.08,36.08,0,0,1-5.29-3.19,76.44,76.44,0,0,1-7.21-6.73c-4.25-3.53-8.5-1.4-9.25,1.25,1.74-.56,4-.29,6.27,1.6a76.43,76.43,0,0,0,7.21,6.73,29.09,29.09,0,0,0,8.3,4.38,12,12,0,0,0,1.35.31,8.64,8.64,0,0,0,.93.11,4.84,4.84,0,0,0,1.82-.2,2.87,2.87,0,0,0,.63-.3l.16-.11.21-.16a14.61,14.61,0,0,0,1.54-1.35,14.45,14.45,0,0,0,1.24-1.35A2.76,2.76,0,0,1,41.73,100.49Z"/><path class="cls-23" d="M38.76,103.33a4,4,0,0,1-.84.18l-.47,0h-.5l-.46,0-.47-.07a12,12,0,0,1-1.35-.31,29.09,29.09,0,0,1-8.3-4.38A76.43,76.43,0,0,1,19.15,92c-2.27-1.89-4.54-2.16-6.27-1.6a3.07,3.07,0,0,0-.11.59,4.24,4.24,0,0,0,1.35,3.25,78.38,78.38,0,0,0,7.39,6.88,29.93,29.93,0,0,0,8.54,4.5,10.61,10.61,0,0,0,2.35.44h.37a4.92,4.92,0,0,0,1.18-.13c-.1,0-.13,0-.14-.05s0-.2,0,0v0a.19.19,0,0,0,.15.05h0l.22-.05.05,0s.25-.09.63-.26l.32-.14.77-.37a25.26,25.26,0,0,0,2.68-1.55l.73-.51A2.87,2.87,0,0,1,38.76,103.33Z"/><path class="cls-24" d="M35.73,72a98.33,98.33,0,0,0-7.94-8.19,28.4,28.4,0,0,0-8-5.09,10.35,10.35,0,0,0-2.29-.6l-.37,0h0a5.6,5.6,0,0,0-.6,0h-.41l-.18,0h0l-.84.41A23.93,23.93,0,0,0,12.67,60c-.38.28-.3.22-1.73,1.36l-.46.43-.21.2a2.82,2.82,0,0,1,1-.47,4.89,4.89,0,0,1,1.83-.07,10.21,10.21,0,0,1,2.23.59,18.21,18.21,0,0,1,2.35,1.1A33,33,0,0,1,23.1,67a96.51,96.51,0,0,1,7.78,8,6.77,6.77,0,0,0,4.77,2.18,3.68,3.68,0,0,0,1.05-1.88A4.08,4.08,0,0,0,35.73,72Z"/><path class="cls-25" d="M39.3,70.64a98.33,98.33,0,0,0-7.94-8.19,28.4,28.4,0,0,0-8-5.09,10.35,10.35,0,0,0-2.29-.6l-.37,0h0a5.41,5.41,0,0,0-.78,0l-.61.07h-.12l-.06,0-.12,0-.06,0h0l-.54.18c-1.48.57-1.72.66-2.32.95l-.21.1h0l.2,0,.31,0h.1a5.6,5.6,0,0,1,.6,0h0l.37,0a10.35,10.35,0,0,1,2.29.6,28.4,28.4,0,0,1,8,5.09A98.33,98.33,0,0,1,35.73,72a4.08,4.08,0,0,1,1,3.33,3.68,3.68,0,0,1-1.05,1.88H35.5l.6,0a3.5,3.5,0,0,0,2.05-.62,4.64,4.64,0,0,0,1-.71A3.68,3.68,0,0,0,40.28,74,4.08,4.08,0,0,0,39.3,70.64Z"/><path class="cls-26" d="M28.5,67.84a6.93,6.93,0,0,0-4.87.57c-.29.15-4.86,2.25-5.15,2.4a65.93,65.93,0,0,0-8.92,5.49,31.89,31.89,0,0,0-8.22,8.19A9.74,9.74,0,0,0,.21,87a3,3,0,0,0-.07.41h0a9.78,9.78,0,0,0-.08,1.35h0s.1.65.1.65h0L.34,90A24.49,24.49,0,0,0,2,94,25.09,25.09,0,0,0,5.3,98.85l.25.29,1.32,1.37A3,3,0,0,1,6,98.94a4.4,4.4,0,0,1,.12-2.07,9.61,9.61,0,0,1,1.1-2.41,31,31,0,0,1,8-8,63.63,63.63,0,0,1,8.67-5.33c.23-.15.45-.29.66-.45,1.24-.74,2.7-1.62,3.7-2.21a40.2,40.2,0,0,0,3.61-2.4A5.49,5.49,0,0,0,28.5,67.84Z"/><path class="cls-27" d="M17.72,63.11A6.23,6.23,0,0,1,17,59.76a4.83,4.83,0,0,1,.53-1.69,2.54,2.54,0,0,1,1.49-1.21l-.06,0h0l-.52.17a18.59,18.59,0,0,0-2.52,1l-.85.41A23.93,23.93,0,0,0,12.71,60c-.38.28-.3.22-1.73,1.36l-.46.43-.21.2-.4.38a3.39,3.39,0,0,0-.85,2.15C8.35,72.85,29,87.9,34.67,99.05A13.32,13.32,0,0,1,36,102.77a3.3,3.3,0,0,1,0,.63,2.59,2.59,0,0,1-.2,1,2.43,2.43,0,0,1-.16.32l-.29.33-.41.39-.69.43s.25-.09.63-.26l.32-.14.77-.37a25.26,25.26,0,0,0,2.68-1.55l.73-.51-.2.11.2-.11.36-.27a14.61,14.61,0,0,0,1.54-1.35A14.45,14.45,0,0,0,42.56,100l.08-.11a3.43,3.43,0,0,0,.56-1.13,7.3,7.3,0,0,0,.14-.73c0-.19.05-.39.08-.61C44.38,89.82,22,72.74,17.72,63.11Z"/><path class="cls-28" d="M17.72,63.11A6.23,6.23,0,0,1,17,59.76a4.83,4.83,0,0,1,.53-1.69,2.54,2.54,0,0,1,1.49-1.21l-.06,0h0l-.52.17a18.59,18.59,0,0,0-2.52,1l-.85.41A23.93,23.93,0,0,0,12.71,60c-.38.28-.3.22-1.73,1.36l-.46.43-.21.2-.4.38a3.39,3.39,0,0,0-.85,2.15C8.35,72.85,29,87.9,34.67,99.05A13.32,13.32,0,0,1,36,102.77a3.3,3.3,0,0,1,0,.63,2.59,2.59,0,0,1-.2,1,2.43,2.43,0,0,1-.16.32l-.29.33-.41.39-.69.43s.25-.09.63-.26l.32-.14.77-.37a25.26,25.26,0,0,0,2.68-1.55l.73-.51-.2.11.2-.11.36-.27a14.61,14.61,0,0,0,1.54-1.35A14.45,14.45,0,0,0,42.56,100l.08-.11a3.43,3.43,0,0,0,.56-1.13,7.3,7.3,0,0,0,.14-.73c0-.19.05-.39.08-.61C44.38,89.82,22,72.74,17.72,63.11Z"/><path class="cls-29" d="M49.34,78.61l-.25-1.35a24.12,24.12,0,0,0-1.26-4.11c-.28-.68-.53-1.3-.84-2a44.73,44.73,0,0,0-2.62-4,3,3,0,0,1,.14.33c.29.51.68,1.15.82,1.48a17.22,17.22,0,0,1,1.07,3.52l.25,1.35c.38,2.46-1.84,6.07-6.35,10-.88.76-1.84,1.53-2.89,2.3C27.57,93.43,14,98.32,7.14,97.11a5.6,5.6,0,0,1-3-1.3A17,17,0,0,1,.52,90.58,26.28,26.28,0,0,0,2,94a25,25,0,0,0,3.28,4.83l.2.23c-.38-.44-1.32-1.65.05.06l1.32,1.37a5.6,5.6,0,0,0,3,1.3C16.71,103,30.26,98.13,40.1,90.88c1.05-.77,2-1.54,2.89-2.3C47.5,84.68,49.72,81.07,49.34,78.61Z"/><path class="cls-14" d="M46.65,73.91l-.25-1.35A17.22,17.22,0,0,0,45.33,69c-.14-.33-.53-1-.82-1.48-.1-.18-.2-.35-.26-.49.54,2.33-1.15,5.62-5.18,9.38l-.59.54-.52.45q-1.36,1.17-3,2.37C24.87,87.27,10.93,92.3,3.86,91.06A10.08,10.08,0,0,1,.19,89.48v0l0,.1.12.4.19.58a17,17,0,0,0,3.65,5.23,5.6,5.6,0,0,0,3,1.3C14,98.32,27.57,93.43,37.4,86.18c1.05-.77,2-1.54,2.89-2.3C44.81,80,47,76.37,46.65,73.91Z"/><path class="cls-30" d="M49.21,78.63,49,77.28a24.12,24.12,0,0,0-1.26-4.11c-.28-.68-.53-1.3-.84-2a44.73,44.73,0,0,0-2.62-4,3,3,0,0,1,.14.33c-.1-.18-.2-.35-.26-.49.54,2.33-1.15,5.62-5.18,9.38l-.59.54-.52.45q-1.36,1.17-3,2.37C24.74,87.28,10.8,92.31,3.73,91.07A10.08,10.08,0,0,1,.06,89.49v0L0,89.33l0,.06H0l.06.21a7.81,7.81,0,0,0,.31,1A26.28,26.28,0,0,0,1.88,94a25,25,0,0,0,3.28,4.83l.2.23c-.38-.44-1.32-1.65.05.06l1.32,1.37a5.6,5.6,0,0,0,3,1.3C16.58,103,30.13,98.14,40,90.89c1.05-.77,2-1.54,2.89-2.3C47.38,84.69,49.59,81.08,49.21,78.63Z"/><path class="cls-31" d="M7.26,98.91l-.05-.06Z"/></g></g></svg>