<svg xmlns="http://www.w3.org/2000/svg" xmlns:xlink="http://www.w3.org/1999/xlink" viewBox="0 0 144.61 84.35"><defs><style>.cls-1{fill:none;}.cls-2{clip-path:url(#clip-path);}.cls-3{clip-path:url(#clip-path-2);}.cls-4{fill:#ae252b;}.cls-5{fill:#fff;}.cls-6{fill:#323860;}</style><clipPath id="clip-path"><circle id="_Trazado_de_recorte_" data-name="&lt;Trazado de recorte&gt;" class="cls-1" cx="63.95" cy="41.78" r="41.78"/></clipPath><clipPath id="clip-path-2"><rect id="_Trazado_de_recorte_2" data-name="&lt;Trazado de recorte&gt;" class="cls-1" width="144.61" height="84.35"/></clipPath></defs><title>en</title><g id="Capa_2" data-name="Capa 2"><g id="Capa_1-2" data-name="Capa 1"><g id="_Recortar_grupo_" data-name="&lt;Recortar grupo&gt;"><g class="cls-2"><g id="_Grupo_" data-name="&lt;Grupo&gt;"><g id="_Recortar_grupo_2" data-name="&lt;Recortar grupo&gt;"><g class="cls-3"><rect id="_Trazado_" data-name="&lt;Trazado&gt;" class="cls-4" y="77.86" width="144.61" height="6.49"/><rect id="_Trazado_2" data-name="&lt;Trazado&gt;" class="cls-5" y="71.37" width="144.61" height="6.49"/><rect id="_Trazado_3" data-name="&lt;Trazado&gt;" class="cls-4" y="64.89" width="144.61" height="6.49"/><rect id="_Trazado_4" data-name="&lt;Trazado&gt;" class="cls-5" y="58.4" width="144.61" height="6.49"/><rect id="_Trazado_5" data-name="&lt;Trazado&gt;" class="cls-4" y="51.91" width="144.61" height="6.49"/><rect id="_Trazado_6" data-name="&lt;Trazado&gt;" class="cls-5" y="45.42" width="144.61" height="6.49"/><rect id="_Trazado_7" data-name="&lt;Trazado&gt;" class="cls-4" y="38.93" width="144.61" height="6.49"/><rect id="_Trazado_8" data-name="&lt;Trazado&gt;" class="cls-5" y="32.44" width="144.61" height="6.48"/><rect id="_Trazado_9" data-name="&lt;Trazado&gt;" class="cls-4" y="25.95" width="144.61" height="6.49"/><rect id="_Trazado_10" data-name="&lt;Trazado&gt;" class="cls-5" y="19.46" width="144.61" height="6.49"/><rect id="_Trazado_11" data-name="&lt;Trazado&gt;" class="cls-4" y="12.97" width="144.61" height="6.49"/><rect id="_Trazado_12" data-name="&lt;Trazado&gt;" class="cls-5" y="6.49" width="144.61" height="6.48"/><rect id="_Trazado_13" data-name="&lt;Trazado&gt;" class="cls-4" width="144.61" height="6.49"/><rect id="_Trazado_14" data-name="&lt;Trazado&gt;" class="cls-6" width="66.02" height="45.42"/><polygon id="_Trazado_15" data-name="&lt;Trazado&gt;" class="cls-5" points="5.95 5 6.51 6.72 8.31 6.72 6.86 7.78 7.41 9.5 5.95 8.44 4.49 9.5 5.05 7.78 3.59 6.72 5.39 6.72 5.95 5"/><polygon id="_Trazado_16" data-name="&lt;Trazado&gt;" class="cls-5" points="5.95 12.59 6.51 14.3 8.31 14.3 6.86 15.36 7.41 17.08 5.95 16.02 4.49 17.08 5.05 15.36 3.59 14.3 5.39 14.3 5.95 12.59"/><polygon id="_Trazado_17" data-name="&lt;Trazado&gt;" class="cls-5" points="5.95 20.17 6.51 21.89 8.31 21.89 6.86 22.95 7.41 24.67 5.95 23.6 4.49 24.67 5.05 22.95 3.59 21.89 5.39 21.89 5.95 20.17"/><polygon id="_Trazado_18" data-name="&lt;Trazado&gt;" class="cls-5" points="5.95 27.75 6.51 29.47 8.31 29.47 6.86 30.53 7.41 32.24 5.95 31.18 4.49 32.24 5.05 30.53 3.59 29.47 5.39 29.47 5.95 27.75"/><polygon id="_Trazado_19" data-name="&lt;Trazado&gt;" class="cls-5" points="5.95 35.34 6.51 37.05 8.31 37.05 6.86 38.11 7.41 39.83 5.95 38.77 4.49 39.83 5.05 38.11 3.59 37.05 5.39 37.05 5.95 35.34"/><polygon id="_Trazado_20" data-name="&lt;Trazado&gt;" class="cls-5" points="11.23 9 11.79 10.72 13.6 10.72 12.13 11.78 12.69 13.49 11.23 12.43 9.77 13.49 10.33 11.78 8.87 10.72 10.68 10.72 11.23 9"/><polygon id="_Trazado_21" data-name="&lt;Trazado&gt;" class="cls-5" points="11.23 16.58 11.79 18.3 13.6 18.3 12.13 19.36 12.69 21.07 11.23 20.02 9.77 21.07 10.33 19.36 8.87 18.3 10.68 18.3 11.23 16.58"/><polygon id="_Trazado_22" data-name="&lt;Trazado&gt;" class="cls-5" points="11.23 24.16 11.79 25.88 13.6 25.88 12.13 26.94 12.69 28.66 11.23 27.6 9.77 28.66 10.33 26.94 8.87 25.88 10.68 25.88 11.23 24.16"/><polygon id="_Trazado_23" data-name="&lt;Trazado&gt;" class="cls-5" points="11.23 31.75 11.79 33.46 13.6 33.46 12.13 34.52 12.69 36.24 11.23 35.18 9.77 36.24 10.33 34.52 8.87 33.46 10.68 33.46 11.23 31.75"/><polygon id="_Trazado_24" data-name="&lt;Trazado&gt;" class="cls-5" points="16.58 5 17.14 6.72 18.94 6.72 17.48 7.78 18.04 9.5 16.58 8.44 15.12 9.5 15.68 7.78 14.22 6.72 16.02 6.72 16.58 5"/><polygon id="_Trazado_25" data-name="&lt;Trazado&gt;" class="cls-5" points="16.58 12.59 17.14 14.3 18.94 14.3 17.48 15.36 18.04 17.08 16.58 16.02 15.12 17.08 15.68 15.36 14.22 14.3 16.02 14.3 16.58 12.59"/><polygon id="_Trazado_26" data-name="&lt;Trazado&gt;" class="cls-5" points="16.58 20.17 17.14 21.89 18.94 21.89 17.48 22.95 18.04 24.67 16.58 23.6 15.12 24.67 15.68 22.95 14.22 21.89 16.02 21.89 16.58 20.17"/><polygon id="_Trazado_27" data-name="&lt;Trazado&gt;" class="cls-5" points="16.58 27.75 17.14 29.47 18.94 29.47 17.48 30.53 18.04 32.24 16.58 31.18 15.12 32.24 15.68 30.53 14.22 29.47 16.02 29.47 16.58 27.75"/><polygon id="_Trazado_28" data-name="&lt;Trazado&gt;" class="cls-5" points="16.58 35.34 17.14 37.05 18.94 37.05 17.48 38.11 18.04 39.83 16.58 38.77 15.12 39.83 15.68 38.11 14.22 37.05 16.02 37.05 16.58 35.34"/><polygon id="_Trazado_29" data-name="&lt;Trazado&gt;" class="cls-5" points="21.86 9 22.42 10.72 24.23 10.72 22.77 11.78 23.32 13.49 21.86 12.43 20.4 13.49 20.96 11.78 19.5 10.72 21.3 10.72 21.86 9"/><polygon id="_Trazado_30" data-name="&lt;Trazado&gt;" class="cls-5" points="21.86 16.58 22.42 18.3 24.23 18.3 22.77 19.36 23.32 21.07 21.86 20.02 20.4 21.07 20.96 19.36 19.5 18.3 21.3 18.3 21.86 16.58"/><polygon id="_Trazado_31" data-name="&lt;Trazado&gt;" class="cls-5" points="21.86 24.16 22.42 25.88 24.23 25.88 22.77 26.94 23.32 28.66 21.86 27.6 20.4 28.66 20.96 26.94 19.5 25.88 21.3 25.88 21.86 24.16"/><polygon id="_Trazado_32" data-name="&lt;Trazado&gt;" class="cls-5" points="21.86 31.75 22.42 33.46 24.23 33.46 22.77 34.52 23.32 36.24 21.86 35.18 20.4 36.24 20.96 34.52 19.5 33.46 21.3 33.46 21.86 31.75"/><polygon id="_Trazado_33" data-name="&lt;Trazado&gt;" class="cls-5" points="27.21 5 27.77 6.72 29.57 6.72 28.11 7.78 28.67 9.5 27.21 8.44 25.75 9.5 26.31 7.78 24.85 6.72 26.65 6.72 27.21 5"/><polygon id="_Trazado_34" data-name="&lt;Trazado&gt;" class="cls-5" points="27.21 12.59 27.77 14.3 29.57 14.3 28.11 15.36 28.67 17.08 27.21 16.02 25.75 17.08 26.31 15.36 24.85 14.3 26.65 14.3 27.21 12.59"/><polygon id="_Trazado_35" data-name="&lt;Trazado&gt;" class="cls-5" points="27.21 20.17 27.77 21.89 29.57 21.89 28.11 22.95 28.67 24.67 27.21 23.6 25.75 24.67 26.31 22.95 24.85 21.89 26.65 21.89 27.21 20.17"/><polygon id="_Trazado_36" data-name="&lt;Trazado&gt;" class="cls-5" points="27.21 27.75 27.77 29.47 29.57 29.47 28.11 30.53 28.67 32.24 27.21 31.18 25.75 32.24 26.31 30.53 24.85 29.47 26.65 29.47 27.21 27.75"/><polygon id="_Trazado_37" data-name="&lt;Trazado&gt;" class="cls-5" points="27.21 35.34 27.77 37.05 29.57 37.05 28.11 38.11 28.67 39.83 27.21 38.77 25.75 39.83 26.31 38.11 24.85 37.05 26.65 37.05 27.21 35.34"/><polygon id="_Trazado_38" data-name="&lt;Trazado&gt;" class="cls-5" points="32.49 9 33.05 10.72 34.85 10.72 33.39 11.78 33.95 13.49 32.49 12.43 31.03 13.49 31.59 11.78 30.13 10.72 31.93 10.72 32.49 9"/><polygon id="_Trazado_39" data-name="&lt;Trazado&gt;" class="cls-5" points="32.49 16.58 33.05 18.3 34.85 18.3 33.39 19.36 33.95 21.07 32.49 20.02 31.03 21.07 31.59 19.36 30.13 18.3 31.93 18.3 32.49 16.58"/><polygon id="_Trazado_40" data-name="&lt;Trazado&gt;" class="cls-5" points="32.49 24.16 33.05 25.88 34.85 25.88 33.39 26.94 33.95 28.66 32.49 27.6 31.03 28.66 31.59 26.94 30.13 25.88 31.93 25.88 32.49 24.16"/><polygon id="_Trazado_41" data-name="&lt;Trazado&gt;" class="cls-5" points="32.49 31.75 33.05 33.46 34.85 33.46 33.39 34.52 33.95 36.24 32.49 35.18 31.03 36.24 31.59 34.52 30.13 33.46 31.93 33.46 32.49 31.75"/><polygon id="_Trazado_42" data-name="&lt;Trazado&gt;" class="cls-5" points="37.84 5 38.4 6.72 40.2 6.72 38.74 7.78 39.3 9.5 37.84 8.44 36.38 9.5 36.94 7.78 35.48 6.72 37.28 6.72 37.84 5"/><polygon id="_Trazado_43" data-name="&lt;Trazado&gt;" class="cls-5" points="37.84 12.59 38.4 14.3 40.2 14.3 38.74 15.36 39.3 17.08 37.84 16.02 36.38 17.08 36.94 15.36 35.48 14.3 37.28 14.3 37.84 12.59"/><polygon id="_Trazado_44" data-name="&lt;Trazado&gt;" class="cls-5" points="37.84 20.17 38.4 21.89 40.2 21.89 38.74 22.95 39.3 24.67 37.84 23.6 36.38 24.67 36.94 22.95 35.48 21.89 37.28 21.89 37.84 20.17"/><polygon id="_Trazado_45" data-name="&lt;Trazado&gt;" class="cls-5" points="37.84 27.75 38.4 29.47 40.2 29.47 38.74 30.53 39.3 32.24 37.84 31.18 36.38 32.24 36.94 30.53 35.48 29.47 37.28 29.47 37.84 27.75"/><polygon id="_Trazado_46" data-name="&lt;Trazado&gt;" class="cls-5" points="37.84 35.34 38.4 37.05 40.2 37.05 38.74 38.11 39.3 39.83 37.84 38.77 36.38 39.83 36.94 38.11 35.48 37.05 37.28 37.05 37.84 35.34"/><polygon id="_Trazado_47" data-name="&lt;Trazado&gt;" class="cls-5" points="43.12 9 43.67 10.72 45.48 10.72 44.02 11.78 44.58 13.49 43.12 12.43 41.66 13.49 42.22 11.78 40.76 10.72 42.56 10.72 43.12 9"/><polygon id="_Trazado_48" data-name="&lt;Trazado&gt;" class="cls-5" points="43.12 16.58 43.67 18.3 45.48 18.3 44.02 19.36 44.58 21.07 43.12 20.02 41.66 21.07 42.22 19.36 40.76 18.3 42.56 18.3 43.12 16.58"/><polygon id="_Trazado_49" data-name="&lt;Trazado&gt;" class="cls-5" points="43.12 24.16 43.67 25.88 45.48 25.88 44.02 26.94 44.58 28.66 43.12 27.6 41.66 28.66 42.22 26.94 40.76 25.88 42.56 25.88 43.12 24.16"/><polygon id="_Trazado_50" data-name="&lt;Trazado&gt;" class="cls-5" points="43.12 31.75 43.67 33.46 45.48 33.46 44.02 34.52 44.58 36.24 43.12 35.18 41.66 36.24 42.22 34.52 40.76 33.46 42.56 33.46 43.12 31.75"/><polygon id="_Trazado_51" data-name="&lt;Trazado&gt;" class="cls-5" points="48.47 5 49.02 6.72 50.83 6.72 49.37 7.78 49.92 9.5 48.47 8.44 47.01 9.5 47.56 7.78 46.1 6.72 47.91 6.72 48.47 5"/><polygon id="_Trazado_52" data-name="&lt;Trazado&gt;" class="cls-5" points="48.47 12.59 49.02 14.3 50.83 14.3 49.37 15.36 49.92 17.08 48.47 16.02 47.01 17.08 47.56 15.36 46.1 14.3 47.91 14.3 48.47 12.59"/><polygon id="_Trazado_53" data-name="&lt;Trazado&gt;" class="cls-5" points="48.47 20.17 49.02 21.89 50.83 21.89 49.37 22.95 49.92 24.67 48.47 23.6 47.01 24.67 47.56 22.95 46.1 21.89 47.91 21.89 48.47 20.17"/><polygon id="_Trazado_54" data-name="&lt;Trazado&gt;" class="cls-5" points="48.47 27.75 49.02 29.47 50.83 29.47 49.37 30.53 49.92 32.24 48.47 31.18 47.01 32.24 47.56 30.53 46.1 29.47 47.91 29.47 48.47 27.75"/><polygon id="_Trazado_55" data-name="&lt;Trazado&gt;" class="cls-5" points="48.47 35.34 49.02 37.05 50.83 37.05 49.37 38.11 49.92 39.83 48.47 38.77 47.01 39.83 47.56 38.11 46.1 37.05 47.91 37.05 48.47 35.34"/><polygon id="_Trazado_56" data-name="&lt;Trazado&gt;" class="cls-5" points="53.75 9 54.31 10.72 56.11 10.72 54.65 11.78 55.21 13.49 53.75 12.43 52.29 13.49 52.84 11.78 51.38 10.72 53.19 10.72 53.75 9"/><polygon id="_Trazado_57" data-name="&lt;Trazado&gt;" class="cls-5" points="53.75 16.58 54.31 18.3 56.11 18.3 54.65 19.36 55.21 21.07 53.75 20.02 52.29 21.07 52.84 19.36 51.38 18.3 53.19 18.3 53.75 16.58"/><polygon id="_Trazado_58" data-name="&lt;Trazado&gt;" class="cls-5" points="53.75 24.16 54.31 25.88 56.11 25.88 54.65 26.94 55.21 28.66 53.75 27.6 52.29 28.66 52.84 26.94 51.38 25.88 53.19 25.88 53.75 24.16"/><polygon id="_Trazado_59" data-name="&lt;Trazado&gt;" class="cls-5" points="53.75 31.75 54.31 33.46 56.11 33.46 54.65 34.52 55.21 36.24 53.75 35.18 52.29 36.24 52.84 34.52 51.38 33.46 53.19 33.46 53.75 31.75"/><polygon id="_Trazado_60" data-name="&lt;Trazado&gt;" class="cls-5" points="59.1 5 59.65 6.72 61.46 6.72 60 7.78 60.56 9.5 59.1 8.44 57.63 9.5 58.19 7.78 56.73 6.72 58.54 6.72 59.1 5"/><polygon id="_Trazado_61" data-name="&lt;Trazado&gt;" class="cls-5" points="59.1 12.59 59.65 14.3 61.46 14.3 60 15.36 60.56 17.08 59.1 16.02 57.63 17.08 58.19 15.36 56.73 14.3 58.54 14.3 59.1 12.59"/><polygon id="_Trazado_62" data-name="&lt;Trazado&gt;" class="cls-5" points="59.1 20.17 59.65 21.89 61.46 21.89 60 22.95 60.56 24.67 59.1 23.6 57.63 24.67 58.19 22.95 56.73 21.89 58.54 21.89 59.1 20.17"/><polygon id="_Trazado_63" data-name="&lt;Trazado&gt;" class="cls-5" points="59.1 27.75 59.65 29.47 61.46 29.47 60 30.53 60.56 32.24 59.1 31.18 57.63 32.24 58.19 30.53 56.73 29.47 58.54 29.47 59.1 27.75"/><polygon id="_Trazado_64" data-name="&lt;Trazado&gt;" class="cls-5" points="59.1 35.34 59.65 37.05 61.46 37.05 60 38.11 60.56 39.83 59.1 38.77 57.63 39.83 58.19 38.11 56.73 37.05 58.54 37.05 59.1 35.34"/></g></g></g></g></g></g></g></svg>